<svg xmlns="http://www.w3.org/2000/svg" viewBox="0 0 24 24" fill="none" stroke="#64748b" stroke-width="2">
  <circle cx="12" cy="12" r="3" />
  <path d="M19.4 15a1.7 1.7 0 0 0 .3 1.9l.1.1a2 2 0 1 1-2.8 2.8l-.1-.1a1.7 1.7 0 0 0-2.9 1.2V21a2 2 0 1 1-4 0v-.1a1.7 1.7 0 0 0-2.9-1.2l-.1.1a2 2 0 1 1-2.8-2.8l.1-.1a1.7 1.7 0 0 0-1.2-2.9H3a2 2 0 1 1 0-4h.1a1.7 1.7 0 0 0 1.2-2.9l-.1-.1a2 2 0 1 1 2.8-2.8l.1.1a1.7 1.7 0 0 0 2.9-1.2V3a2 2 0 1 1 4 0v.1a1.7 1.7 0 0 0 2.9 1.2l.1-.1a2 2 0 1 1 2.8 2.8l-.1.1a1.7 1.7 0 0 0-.3 1.9 1.7 1.7 0 0 0 1.5 1H21a2 2 0 1 1 0 4h-.1a1.7 1.7 0 0 0-1.5 1z" />
</svg>
